HIERARCHY
ROOT Hips
{
  OFFSET 13.6774 106.653 -34.4427
  CHANNELS 6 Xposition Yposition Zposition Zrotation Xrotation Yrotation
  JOINT ToSpine
  {
    OFFSET -2.69724 7.43032 -0.144315
    CHANNELS 3 Zrotation Xrotation Yrotation
    JOINT Spine
    {
      OFFSET -0.0310711 10.7595 1.96963
      CHANNELS 3 Zrotation Xrotation Yrotation
      JOINT Spine1
      {
        OFFSET 19.9056 3.91189 0.764692
        CHANNELS 3 Zrotation Xrotation Yrotation
        JOINT Neck
        {
          OFFSET 25.9749 7.03908 -0.130764
          CHANNELS 3 Zrotation Xrotation Yrotation
          JOINT Head
          {
            OFFSET 9.52751 0.295786 -0.907742
            CHANNELS 3 Zrotation Xrotation Yrotation
            End Site
            {
              OFFSET 16.4037 0.713936 2.7358
            }
          }
        }
        JOINT LeftShoulder
        {
          OFFSET 17.7449 4.33886 11.7777
          CHANNELS 3 Zrotation Xrotation Yrotation
          JOINT LeftArm
          {
            OFFSET 0.911315 1.27913 9.80584
            CHANNELS 3 Zrotation Xrotation Yrotation
            JOINT LeftForeArm
            {
              OFFSET 28.6126 1.18197 -3.53199
              CHANNELS 3 Zrotation Xrotation Yrotation
              JOINT LeftHand
              {
                OFFSET 27.5088 0.0218783 0.327423
                CHANNELS 3 Zrotation Xrotation Yrotation
                End Site
                {
                  OFFSET 18.6038 -0.000155887 0.382096
                }
              }
            }
          }
        }
        JOINT RightShoulder
        {
          OFFSET 17.1009 2.89543 -12.2328
          CHANNELS 3 Zrotation Xrotation Yrotation
          JOINT RightArm
          {
            OFFSET 1.4228 0.178766 -10.211
            CHANNELS 3 Zrotation Xrotation Yrotation
            JOINT RightForeArm
            {
              OFFSET 28.733 1.87905 2.64907
              CHANNELS 3 Zrotation Xrotation Yrotation
              JOINT RightHand
              {
                OFFSET 27.4588 0.290562 -0.101845
                CHANNELS 3 Zrotation Xrotation Yrotation
                End Site
                {
                  OFFSET 17.8396 -0.255518 -0.000602873
                }
              }
            }
          }
        }
      }
    }
  }
  JOINT LeftUpLeg
  {
    OFFSET -5.61296 -2.22332 -10.2353
    CHANNELS 3 Zrotation Xrotation Yrotation
    JOINT LeftLeg
    {
      OFFSET 2.56703 -44.7417 -7.93097
      CHANNELS 3 Zrotation Xrotation Yrotation
      JOINT LeftFoot
      {
        OFFSET 3.16933 -46.5642 -3.96578
        CHANNELS 3 Zrotation Xrotation Yrotation
        JOINT LeftToeBase
        {
          OFFSET 0.346054 -6.02161 12.8035
          CHANNELS 3 Zrotation Xrotation Yrotation
          End Site
          {
            OFFSET 0.134235 -1.35082 5.13018
          }
        }
      }
    }
  }
  JOINT RightUpLeg
  {
    OFFSET -5.7928 -1.72406 10.6446
    CHANNELS 3 Zrotation Xrotation Yrotation
    JOINT RightLeg
    {
      OFFSET -2.57161 -44.7178 -7.85259
      CHANNELS 3 Zrotation Xrotation Yrotation
      JOINT RightFoot
      {
        OFFSET -3.10148 -46.5936 -4.03391
        CHANNELS 3 Zrotation Xrotation Yrotation
        JOINT RightToeBase
        {
          OFFSET -0.0828122 -6.13587 12.8035
          CHANNELS 3 Zrotation Xrotation Yrotation
          End Site
          {
            OFFSET -0.131328 -1.35082 5.13018
          }
        }
      }
    }
  }
}
MOTION
Frames: 21
Frame Time: 0.03333333333333333
0.0000 93.1000 0.0000 6.5874 -73.5536 -85.0175 -70.8892 -0.1621 88.1507 136.3625 61.1936 -47.0617 -5.0027 19.7673 -0.0295 -146.5176 15.1004 168.5756 -134.0240 48.3253 160.0891 0.7113 -10.4082 2.8302 -108.7329 14.2197 -106.9177 -8.3669 34.3657 9.1759 17.6676 -0.8086 0.9042 -0.2090 -2.0790 -7.9173 -82.4162 -23.0272 94.2446 17.8712 -3.6798 81.1889 1.1922 -0.9355 7.3187 -3.5655 29.0699 65.5506 -8.5051 69.1215 -3.0452 2.9464 9.9296 -0.8598 -3.6366 0.2570 15.3066 -50.7402 -42.2197 95.4612 2.2023 36.3882 11.2264 -4.2112 -2.3125 -0.2686 2.0682 15.7015 -14.0434 
0.0000 93.1000 0.0000 -20.7320 -71.9991 -116.4805 -70.6661 -0.4317 87.8759 136.3867 62.0959 -49.9296 -6.0269 22.4800 -3.8338 -142.3332 13.3658 170.6744 -135.9780 47.6398 166.4351 0.2126 -8.8783 6.0834 -106.7466 3.9641 -96.8913 -7.6214 22.6061 8.3928 17.1528 -0.5713 2.2471 -0.5012 -0.5438 -8.5570 -83.1202 -19.7172 87.9784 14.1958 -5.5863 72.8112 0.6472 -1.0006 6.7584 -16.1810 37.6985 69.5777 -4.9857 56.2379 -9.7192 0.0114 10.7474 0.1232 -3.2777 3.3674 16.0304 -35.3336 -40.4762 104.8584 2.0374 48.3121 6.4761 -5.3338 0.4035 -0.3495 2.3774 13.0374 -16.1844 
0.0000 93.1000 0.0000 -32.7989 -70.3261 -130.8326 -70.5293 -0.9486 87.7919 134.3590 62.6871 -51.7030 -5.0211 23.7096 -5.4000 -142.9224 13.0127 173.5397 -137.6013 47.7008 170.6985 -0.2157 -7.4340 6.6522 -101.9036 4.0445 -83.9688 -6.5464 12.0179 5.7236 16.0690 -0.5245 2.6476 -1.2070 -1.0987 -6.9158 -87.6269 -16.3435 81.0487 13.9836 -6.7973 62.3494 1.1939 -0.9578 5.2579 -31.1616 39.6177 74.6712 -3.8023 43.5707 -12.4036 -3.2370 10.6837 1.2405 -2.9495 1.9891 16.9788 -23.0130 -38.0042 109.7936 9.5365 71.3663 1.1877 -6.5232 -0.7257 0.2376 4.1011 3.1651 -18.9634 
0.0000 93.1000 0.0000 -27.3257 -70.8153 -125.5721 -70.5143 -0.5441 88.1291 132.3222 61.6043 -51.6269 -2.8248 22.2880 -6.8103 -143.3069 12.9083 175.1567 -139.1003 47.6210 174.1130 -0.1078 -5.6210 6.2367 -97.2130 4.5129 -75.0574 -7.3573 9.4447 0.6806 15.3678 -0.1037 2.0161 -0.9872 -2.5435 -4.8964 -92.1941 -13.9306 72.9928 12.8313 -9.6873 50.6246 3.3119 -0.4640 4.7069 -36.5248 37.2555 77.4036 -4.0451 37.2627 -11.8662 -4.2391 8.3711 1.3320 -4.8737 1.7376 19.6723 -15.2693 -38.1490 108.2930 125.8953 83.7629 -116.2856 -8.4564 -3.8349 1.2989 7.6072 -6.3879 -18.5029 
0.0000 93.1000 0.0000 -21.1220 -70.7986 -116.6088 -70.5149 -0.0522 88.1833 133.5121 60.3845 -50.2974 -2.4664 20.6940 -6.1344 -145.8595 12.9405 176.4556 -138.7095 47.2601 173.9861 -0.1225 -3.2071 3.7870 -92.9125 12.4933 -68.9623 -6.3532 2.0793 -8.0842 12.9685 0.1491 1.7588 -0.9038 -4.2234 -2.5752 -93.2277 -14.7733 65.9278 9.6954 -8.7509 42.0606 4.2762 -0.4180 4.3510 -34.6204 36.2344 78.8365 -3.1183 37.9189 -13.1658 -3.8216 8.2585 1.1520 -5.7334 -1.3579 22.1350 -11.3152 -35.8313 100.2661 165.3951 67.7914 -152.5461 -9.1450 -7.2479 1.1658 7.4793 -8.1355 -16.2334 
0.0000 93.1000 0.0000 -19.7874 -70.1186 -114.2926 -70.5391 0.1224 88.0961 134.7167 58.1741 -51.2037 -2.7713 19.4050 -4.5142 -149.6080 11.9447 175.7619 -135.7279 45.6860 169.2460 -0.0923 -0.5919 -1.4960 -85.4237 23.4965 -68.3007 -5.5500 -13.9384 -18.7832 9.8753 -0.1263 1.6495 -0.7617 -5.1685 0.6352 -91.6641 -19.8391 61.0693 4.9288 -4.3952 38.2940 3.9054 0.1075 3.9481 -32.7217 34.1515 82.9720 -3.8784 44.8578 -14.4069 -1.9419 6.0678 0.4081 -6.5039 -11.3849 26.8856 -6.8265 -30.9222 89.6214 168.2039 55.0425 -150.6411 -9.7209 -8.2874 0.9716 6.1896 -10.6691 -9.7059 
0.0000 93.1000 0.0000 -19.9721 -69.9740 -116.5019 -70.5553 0.1110 88.1219 134.6978 56.4315 -54.7178 -1.3715 18.4353 -2.6402 -155.5557 11.0702 173.8504 -134.7475 44.0629 167.0924 0.3136 1.6084 -9.5932 -87.1222 26.8198 -70.4201 -6.0446 -19.2054 -23.5193 9.0665 -0.4767 1.3496 -0.3269 -5.3292 6.6090 -89.6224 -25.8414 61.5068 2.7970 -1.6295 36.6018 2.2622 0.4361 3.6566 -29.1761 29.8295 86.3805 -4.8560 54.3373 -8.5720 3.1357 2.4303 -0.7563 -6.7326 -21.4018 24.3750 -1.0303 -25.9016 79.2246 168.2727 53.1933 -147.4108 -10.4481 -7.3437 1.0506 7.1985 -15.9367 -7.9792 
0.0000 93.1000 0.0000 -9.0519 -68.9314 -107.8043 -70.5764 -0.0383 88.1009 132.9643 56.7225 -58.2113 0.4532 17.0556 1.4706 -161.6107 12.1400 173.6765 -134.7978 45.2748 165.4526 1.0549 1.2965 -19.3233 -92.3987 25.5182 -81.4564 -5.1346 -14.4019 -20.6520 9.1098 -0.8455 0.4651 0.0509 -5.9025 14.7071 -91.0034 -31.0568 67.0166 2.4299 0.0818 30.9883 -0.2922 -0.0763 2.7256 -17.3726 24.2725 82.8488 -10.2087 70.2280 -4.9752 4.7934 2.0190 -1.2122 -7.1062 -27.4833 22.1486 2.7297 -21.2751 68.9591 166.0467 61.6009 -145.2639 -9.8102 -6.1436 0.9990 7.7733 -18.1155 -7.8725 
0.0000 93.1000 0.0000 8.7403 -67.7479 -92.1024 -70.6741 -0.4044 88.0357 132.8036 56.3159 -56.3679 3.0024 16.6068 2.6472 -162.5927 15.2746 175.7041 -136.8576 49.5889 166.6215 1.1359 -1.8842 -24.4569 -98.4604 25.3493 -96.4323 -5.2764 -1.6808 -10.5988 9.0168 -1.2273 -0.2483 0.0559 -4.6411 22.3157 -90.3481 -34.7300 75.0388 3.9287 -7.2895 21.2634 -4.7763 -0.3928 2.0304 -10.6540 18.3009 84.6009 -14.6734 74.1723 -4.0795 4.3868 2.7229 -0.8335 -7.7433 -31.3888 17.2102 3.8937 -18.3249 64.2248 159.2719 74.5101 -142.2393 -9.2913 -4.4696 0.8321 6.0303 -10.3515 -9.1658 
0.0000 93.1000 0.0000 25.0954 -69.0723 -79.3393 -71.0421 -0.8022 87.8875 136.8536 54.8333 -57.1634 6.0855 16.9756 -0.2281 -164.3980 19.7877 177.1875 -136.3872 54.8568 166.1561 1.1342 -4.7160 -28.4748 -98.3295 28.1423 -112.2618 -5.6024 9.7156 -6.5413 9.0432 -1.2447 -1.5498 0.0145 -2.9877 26.5130 -96.1207 -33.5996 80.4106 2.9575 -21.1366 13.6266 -7.1716 -0.6792 1.6761 -11.5522 11.7094 93.6993 -21.0346 77.8692 0.9436 4.5702 4.2415 -0.4402 -7.7892 -36.3344 14.5567 -0.3834 -17.2888 71.1849 145.2387 81.0576 -130.4842 -6.5343 -3.2974 0.4353 5.3507 4.5580 -18.6474 
0.0000 93.1000 0.0000 47.3654 -69.8933 -60.6524 -71.3137 0.6021 87.9907 140.9579 53.2116 -59.0044 7.5915 17.0197 -1.0647 -164.4593 22.9454 179.5614 -136.4868 58.8335 165.3591 1.6143 -6.7096 -28.5036 -84.4226 29.3860 -127.9910 -2.8732 10.1605 -11.3846 9.2427 -0.5186 -2.7290 0.4296 -0.6164 26.6641 -96.9979 -35.1794 86.2139 2.4610 -23.5107 11.5993 -5.0003 -0.9736 1.7703 -13.2215 3.6521 98.8915 -33.7701 82.0310 15.1834 6.0415 1.9455 -1.0507 -8.2217 -32.8227 12.7347 -3.0494 -15.6279 82.4814 150.9537 80.4440 -141.8304 -6.9187 -3.9284 0.3641 10.8686 -22.2340 -23.1741 
0.0000 93.1000 0.0000 55.6652 -68.3021 -52.9753 -70.8631 0.7356 88.1339 141.6758 53.9719 -57.3464 7.9054 17.5604 -2.1345 -162.1849 25.4384 -178.9371 -136.0535 61.3488 166.0827 0.7802 -7.2516 -28.8109 -66.0119 21.8378 -141.2059 1.2537 2.2558 -22.3757 10.4624 -0.6427 -2.8418 0.3674 0.1050 25.6868 -95.2430 -35.2332 93.7472 1.1829 -14.5327 12.6242 -0.9938 0.1325 3.0618 -13.2928 -1.7994 100.6687 -56.5854 84.3224 38.9147 7.0102 4.7807 -1.3154 -9.4617 -38.7335 11.8551 -0.8161 -13.4552 91.8858 159.2108 76.5024 -155.0907 -7.7346 -0.9719 0.2915 12.8578 -30.5685 -16.9546 
0.0000 93.1000 0.0000 52.1744 -69.0522 -51.9484 -70.6674 -0.2282 88.0086 146.0093 54.8984 -55.2032 8.7976 19.1128 -0.6925 -161.3719 26.3428 -177.9363 -136.4568 61.7465 166.7768 1.1118 -7.1364 -31.1751 -65.8720 24.8867 -141.0695 6.2054 5.6613 -31.9053 11.6482 -0.6685 -3.1970 -1.1455 0.3785 27.0625 -94.1680 -32.4255 101.2426 -0.1493 -0.4141 16.7923 1.9996 -1.4742 2.3182 -13.1111 -2.1920 97.7120 -79.0000 85.3459 64.2933 8.3624 4.7105 -1.8866 -9.4377 -41.7951 10.3644 -2.6604 -10.6637 92.5850 160.7387 77.8215 -157.5387 -7.6741 -0.4299 0.7895 11.4351 -30.6200 -19.3352 
0.0000 93.1000 0.0000 52.2988 -71.4884 -50.2083 -71.1025 0.2750 88.2906 147.9422 55.1441 -56.0167 9.2057 20.0999 -0.3141 -160.3046 25.8866 179.8762 -134.4548 60.8041 165.0936 0.8529 -6.1629 -30.0408 -66.1197 31.0055 -139.6715 8.9090 10.1465 -35.3081 14.4167 -1.1557 -1.6439 -0.3503 0.6454 26.6855 -89.9706 -33.8870 108.0740 -2.3310 7.7767 21.7901 1.6876 0.7841 5.0030 -15.5900 -3.5712 97.8464 -55.1335 83.8993 41.8384 8.3805 6.2560 -1.5868 -10.6207 -44.7758 7.2296 -7.2568 -9.9148 92.6758 153.5511 81.6516 -152.0982 -7.2171 -2.5632 0.6749 12.9038 -31.9344 -17.7581 
0.0000 93.1000 0.0000 46.4913 -72.0454 -57.2635 -70.8213 -0.0595 88.2374 146.9058 56.6076 -58.2732 9.0216 21.4283 0.6684 -160.2293 25.1810 178.5529 -135.1923 60.6457 162.6616 1.1803 -5.7204 -30.4174 -65.4011 34.2614 -139.1123 12.9398 14.2705 -37.6387 15.8760 -0.9463 -1.3188 -0.9411 1.0487 25.6981 -90.2545 -37.8124 112.1531 1.5716 2.6568 24.9106 1.6352 -0.2232 5.1516 -17.8303 -3.9544 100.5807 -34.0556 82.5811 20.7126 8.9347 4.8192 -1.9979 -9.8209 -41.8988 7.7892 -10.6521 -9.7796 95.2258 137.1809 84.5583 -134.9936 -7.9188 -4.8269 1.0064 12.2407 -30.1014 -18.1392 
0.0000 93.1000 0.0000 42.5726 -71.0904 -58.9439 -70.5855 0.0975 88.1219 145.8026 57.7173 -56.1754 8.5766 21.7824 0.9569 -160.3298 24.6758 177.8791 -134.7521 59.5262 162.3866 1.4349 -5.9460 -30.1979 -64.1010 35.1117 -136.0942 15.0438 17.2537 -37.3560 17.5917 -0.5581 -0.7444 -0.8981 1.1152 26.6990 -87.1600 -38.9348 115.0818 6.0435 -7.1329 26.4578 2.3213 -0.3614 5.4943 -19.2483 -4.0304 98.6913 -21.3525 79.4049 9.8650 9.2810 4.5049 -2.3296 -9.9076 -41.2976 8.4710 -11.7925 -8.9900 93.5823 88.2472 86.7142 -88.2204 -7.9003 -5.8524 0.9378 11.9696 -25.9502 -18.8570 
0.0000 93.1000 0.0000 41.7272 -71.7599 -58.2353 -70.5236 -0.0170 87.9852 145.0917 58.3291 -55.2560 7.9320 20.9880 1.3174 -160.3191 23.7735 177.6507 -135.1080 58.5356 161.4742 1.2363 -6.0498 -30.9966 -64.3144 36.9653 -133.8491 14.9497 18.1283 -34.7591 16.9854 -0.6899 -0.0669 -1.0223 1.6380 27.5349 -84.0471 -38.8553 116.8762 11.0124 -17.6652 27.6328 4.6785 -0.3247 4.4607 -23.0709 -3.1762 98.4843 -13.3915 74.8790 1.5243 9.6283 4.8572 -2.3874 -9.9400 -40.0147 8.4439 -16.0808 -8.9317 92.2727 28.0348 83.8418 -27.5286 -7.8974 -6.5713 1.0697 11.0241 -22.4498 -19.1883 
0.0000 93.1000 0.0000 42.8148 -72.0197 -55.3999 -70.5221 0.0016 87.9858 144.0676 59.2944 -54.1308 7.8452 20.2139 2.0210 -160.3182 23.4289 177.7694 -135.5965 58.4338 161.4872 0.8390 -6.0824 -31.0002 -62.1190 38.1580 -133.3920 13.3215 20.1263 -29.9515 14.9124 -0.8649 0.1031 -1.1194 1.0762 28.5646 -83.1356 -39.8480 115.7817 15.1458 -22.8710 29.6079 6.5503 -0.1294 3.3414 -26.9978 -4.1203 97.6551 -9.9775 70.1676 -4.5283 7.9228 3.6365 -1.9337 -8.7539 -35.8012 9.4903 -21.1190 -9.1730 90.9148 13.0032 78.4990 -13.9139 -8.1677 -7.5067 1.2536 10.1894 -19.2342 -20.2651 
0.0000 93.1000 0.0000 41.8045 -72.9620 -56.6344 -70.5447 0.0544 87.8929 141.1294 60.7826 -53.3735 7.9363 20.1972 2.0211 -159.3392 23.1829 175.3680 -138.0875 57.8955 163.2627 1.0686 -5.9861 -30.9077 -60.0724 38.9258 -133.3783 11.9656 22.2792 -24.6945 12.5754 -1.0906 0.8141 -1.0743 1.0447 29.6361 -82.8114 -41.1001 112.8174 14.8935 -20.9867 30.5218 7.1390 0.3005 2.8557 -31.4572 -4.0546 97.8236 -8.3372 64.2196 -6.7939 7.6171 3.5178 -1.7748 -7.8072 -32.9743 10.0907 -25.3208 -9.1449 90.3874 8.0273 72.3883 -8.6019 -7.9881 -7.8440 1.1725 10.0837 -16.9739 -21.1395 
0.0000 93.1000 0.0000 41.9561 -73.0057 -56.7170 -70.5967 -0.0654 87.9420 137.1717 61.7264 -52.1157 7.5251 20.4197 2.0389 -158.3243 22.7686 173.6745 -137.4464 57.5171 163.5091 1.2879 -4.6876 -30.9840 -60.0577 40.1182 -131.5255 9.9046 25.7712 -21.4904 12.0464 -1.2524 -0.1594 -0.8556 0.7000 30.6529 -81.0611 -41.6814 111.3715 10.9624 -16.9418 27.6962 7.9840 0.3020 1.3793 -34.9846 -5.1040 97.1955 -6.1709 57.9057 -8.7815 6.8795 3.7674 -1.3603 -7.8961 -29.2524 11.2580 -28.1270 -8.7788 89.0015 6.0069 67.3338 -6.3749 -7.1011 -6.2649 0.9549 9.6736 -14.9460 -21.2789 
0.0000 93.1000 0.0000 44.0476 -71.8557 -53.7407 -70.4265 -0.1962 88.0139 134.1719 62.2450 -49.2727 7.1813 19.5486 1.8930 -156.3661 21.8688 171.2742 -138.1876 56.6943 163.7753 1.4713 -4.6045 -30.0068 -66.4176 43.3903 -126.3715 7.9949 34.0441 -20.0125 10.3574 -1.4499 -1.2629 -0.4700 0.3473 31.6993 -81.1307 -42.8701 107.8038 9.2087 -13.3586 25.6738 8.4459 0.5300 0.6668 -38.8374 -5.8665 95.3957 -5.2205 51.9591 -8.2302 7.0428 3.8215 -1.1733 -6.8135 -26.7880 11.5144 -32.9591 -8.8020 87.7308 3.1235 61.7039 -3.4435 -6.7210 -6.2689 0.5870 9.2644 -11.6368 -20.9510 
